<svg xmlns="http://www.w3.org/2000/svg" viewBox="0 0 400 300" preserveAspectRatio="xMidYMid slice" role="img" aria-hidden="true"><defs><radialGradient id="g" cx="50%" cy="45%" r="75%"><stop offset="0" stop-color="#ffe2c4"/><stop offset="1" stop-color="#f3a46b"/></radialGradient><filter id="s" x="-20%" y="-20%" width="140%" height="150%"><feDropShadow dx="0" dy="8" stdDeviation="8" flood-color="#000" flood-opacity=".18"/></filter></defs><rect width="400" height="300" fill="url(#g)"/>
<ellipse cx="200" cy="248" rx="120" ry="14" fill="#000" opacity=".15"/>
<g filter="url(#s)">
<path d="M92 214c0 20 24 28 108 28s108-8 108-28z" fill="#d9993f"/>
<path d="M88 190c0-10 8-16 20-16h184c12 0 20 6 20 16 0 10-8 20-20 20H108c-12 0-20-10-20-20z" fill="#6b3a20"/>
<path d="M96 168c10 8 18-4 28 4s18-4 28 4 18-4 28 4 18-4 28 4 18-4 28 4 18-4 28 4v6H96z" fill="#5bb04a"/>
<path d="M100 170c0 0 20 40 40 0z M250 170c0 0 20 40 40 0z" fill="#f6c02e" transform="translate(0 4)"/>
<rect x="96" y="160" width="208" height="14" rx="7" fill="#f6c02e"/>
<ellipse cx="150" cy="150" rx="42" ry="12" fill="#e2412c"/><ellipse cx="250" cy="150" rx="42" ry="12" fill="#e2412c"/>
<path d="M92 142c0-52 48-80 108-80s108 28 108 80z" fill="#e8a24a"/>
<path d="M110 120c14-30 50-46 90-46" stroke="#f6c47a" stroke-width="8" stroke-linecap="round" fill="none" opacity=".7"/>
</g>
<g fill="#fff3d6"><ellipse cx="160" cy="96" rx="7" ry="3.6" transform="rotate(-20 160 96)"/><ellipse cx="200" cy="84" rx="7" ry="3.6"/><ellipse cx="240" cy="96" rx="7" ry="3.6" transform="rotate(20 240 96)"/><ellipse cx="180" cy="116" rx="7" ry="3.6" transform="rotate(-10 180 116)"/><ellipse cx="222" cy="116" rx="7" ry="3.6" transform="rotate(10 222 116)"/><ellipse cx="136" cy="118" rx="7" ry="3.6" transform="rotate(-30 136 118)"/><ellipse cx="264" cy="118" rx="7" ry="3.6" transform="rotate(30 264 118)"/></g>
</svg>
